<svg id="visual" viewBox="0 0 900 450" width="900" height="450" xmlns="http://www.w3.org/2000/svg" xmlns:xlink="http://www.w3.org/1999/xlink" version="1.1"><rect x="0" y="0" width="900" height="450" fill="#f4f7fd"></rect><defs><linearGradient id="grad1_0" x1="50%" y1="100%" x2="100%" y2="0%"><stop offset="10%" stop-color="#535562" stop-opacity="1"></stop><stop offset="90%" stop-color="#535562" stop-opacity="1"></stop></linearGradient></defs><defs><linearGradient id="grad1_1" x1="50%" y1="100%" x2="100%" y2="0%"><stop offset="10%" stop-color="#535562" stop-opacity="1"></stop><stop offset="90%" stop-color="#9fa2ac" stop-opacity="1"></stop></linearGradient></defs><defs><linearGradient id="grad1_2" x1="50%" y1="100%" x2="100%" y2="0%"><stop offset="10%" stop-color="#f4f7fd" stop-opacity="1"></stop><stop offset="90%" stop-color="#9fa2ac" stop-opacity="1"></stop></linearGradient></defs><defs><linearGradient id="grad2_0" x1="0%" y1="100%" x2="50%" y2="0%"><stop offset="10%" stop-color="#535562" stop-opacity="1"></stop><stop offset="90%" stop-color="#535562" stop-opacity="1"></stop></linearGradient></defs><defs><linearGradient id="grad2_1" x1="0%" y1="100%" x2="50%" y2="0%"><stop offset="10%" stop-color="#9fa2ac" stop-opacity="1"></stop><stop offset="90%" stop-color="#535562" stop-opacity="1"></stop></linearGradient></defs><defs><linearGradient id="grad2_2" x1="0%" y1="100%" x2="50%" y2="0%"><stop offset="10%" stop-color="#9fa2ac" stop-opacity="1"></stop><stop offset="90%" stop-color="#f4f7fd" stop-opacity="1"></stop></linearGradient></defs><g transform="translate(900, 450)"><path d="M-450 0C-418.1 -22.7 -386.2 -45.3 -388.4 -77.3C-390.6 -109.2 -426.9 -150.4 -413.9 -171.4C-400.9 -192.5 -338.6 -193.3 -308.5 -206.1C-278.4 -219 -280.6 -243.8 -279.3 -279.3C-278 -314.8 -273.4 -361 -250 -374.2C-226.7 -387.3 -184.7 -367.5 -155.8 -376C-126.8 -384.5 -111 -421.4 -87.2 -438.4C-63.4 -455.5 -31.7 -452.7 0 -450L0 0Z" fill="#c9ccd4"></path><path d="M-300 0C-278.7 -15.1 -257.5 -30.2 -258.9 -51.5C-260.4 -72.8 -284.6 -100.3 -275.9 -114.3C-267.3 -128.3 -225.7 -128.9 -205.7 -137.4C-185.6 -146 -187 -162.5 -186.2 -186.2C-185.4 -209.9 -182.2 -240.7 -166.7 -249.4C-151.1 -258.2 -123.1 -245 -103.8 -250.7C-84.6 -256.3 -74 -280.9 -58.1 -292.3C-42.3 -303.6 -21.1 -301.8 0 -300L0 0Z" fill="#787b86"></path><path d="M-150 0C-139.4 -7.6 -128.7 -15.1 -129.5 -25.8C-130.2 -36.4 -142.3 -50.1 -138 -57.1C-133.6 -64.2 -112.9 -64.4 -102.8 -68.7C-92.8 -73 -93.5 -81.3 -93.1 -93.1C-92.7 -104.9 -91.1 -120.3 -83.3 -124.7C-75.6 -129.1 -61.6 -122.5 -51.9 -125.3C-42.3 -128.2 -37 -140.5 -29.1 -146.1C-21.1 -151.8 -10.6 -150.9 0 -150L0 0Z" fill="#535562"></path></g><g transform="translate(0, 0)"><path d="M450 0C418.5 23.3 387.1 46.7 385.4 76.7C383.8 106.7 412 143.4 410.2 169.9C408.4 196.5 376.6 212.9 358.4 239.5C340.1 266 335.5 302.7 307.6 307.6C279.7 312.5 228.6 285.7 206.7 309.3C184.8 332.9 192 407 172.2 415.7C152.4 424.5 105.4 368.1 72.2 362.9C39 357.7 19.5 403.9 0 450L0 0Z" fill="#c9ccd4"></path><path d="M300 0C279 15.6 258.1 31.1 257 51.1C255.9 71.1 274.7 95.6 273.5 113.3C272.3 131 251.1 141.9 238.9 159.6C226.8 177.3 223.7 201.8 205.1 205.1C186.5 208.3 152.4 190.5 137.8 206.2C123.2 221.9 128 271.3 114.8 277.2C101.6 283 70.3 245.4 48.1 241.9C26 238.5 13 269.2 0 300L0 0Z" fill="#787b86"></path><path d="M150 0C139.5 7.8 129 15.6 128.5 25.6C127.9 35.6 137.3 47.8 136.7 56.6C136.1 65.5 125.5 71 119.5 79.8C113.4 88.7 111.8 100.9 102.5 102.5C93.2 104.2 76.2 95.2 68.9 103.1C61.6 111 64 135.7 57.4 138.6C50.8 141.5 35.1 122.7 24.1 121C13 119.2 6.5 134.6 0 150L0 0Z" fill="#535562"></path></g></svg>